<svg xmlns="http://www.w3.org/2000/svg" width="1600" height="1000" viewBox="0 0 1600 1000" role="img" aria-labelledby="title_vf_8 desc_vf_8">
  <title id="title_vf_8">VF 8 studio demo render</title>
  <desc id="desc_vf_8">Render studio tự tạo cho website demo, không phải ảnh sản phẩm chính thức của VinFast.</desc>
  <defs>
    <linearGradient id="bg_vf_8" x1="0" y1="0" x2="1" y2="1">
      <stop offset="0%" stop-color="#ffffff"/>
      <stop offset="46%" stop-color="#eef9ff"/>
      <stop offset="100%" stop-color="#f8fbff"/>
    </linearGradient>
    <radialGradient id="halo_vf_8" cx="50%" cy="34%" r="58%">
      <stop offset="0%" stop-color="#042f5f" stop-opacity="0.18"/>
      <stop offset="70%" stop-color="#042f5f" stop-opacity="0.04"/>
      <stop offset="100%" stop-color="#042f5f" stop-opacity="0"/>
    </radialGradient>
    <linearGradient id="paint_vf_8" x1="0" y1="0.05" x2="1" y2="0.95">
      <stop offset="0%" stop-color="#ffffff"/>
      <stop offset="42%" stop-color="#f1f7fb"/>
      <stop offset="78%" stop-color="#d9e8f0"/>
      <stop offset="100%" stop-color="#f8fbff"/>
    </linearGradient>
    <linearGradient id="glass_vf_8" x1="0" y1="0" x2="1" y2="1">
      <stop offset="0%" stop-color="#e9fbff"/>
      <stop offset="44%" stop-color="#6ea6c8"/>
      <stop offset="100%" stop-color="#07111e"/>
    </linearGradient>
    <linearGradient id="rim_vf_8" x1="0" y1="0" x2="1" y2="1">
      <stop offset="0%" stop-color="#ffffff"/>
      <stop offset="50%" stop-color="#b9c9d4"/>
      <stop offset="100%" stop-color="#eef6fb"/>
    </linearGradient>
    <filter id="shadow_vf_8" x="-20%" y="-20%" width="140%" height="150%">
      <feDropShadow dx="0" dy="42" stdDeviation="32" flood-color="#08213b" flood-opacity="0.22"/>
    </filter>
    <filter id="floor_vf_8" x="-20%" y="-30%" width="140%" height="160%">
      <feGaussianBlur stdDeviation="28"/>
    </filter>
  </defs>
  <rect width="1600" height="1000" rx="64" fill="url(#bg_vf_8)"/>
  <rect width="1600" height="1000" rx="64" fill="url(#halo_vf_8)"/>
  <path d="M160 826 C470 744 1104 742 1450 828" fill="none" stroke="#cbe8f6" stroke-width="3" opacity="0.62"/>
  <ellipse cx="812" cy="838" rx="612" ry="82" fill="#08213b" opacity="0.12" filter="url(#floor_vf_8)"/>
  <g filter="url(#shadow_vf_8)">
    <path d="M350 420 C464 276 894 274 1114 462 C1172 512 1220 560 1288 644 H276 C294 544 318 472 350 420 Z" fill="url(#paint_vf_8)"/>
    <path d="M112 636 C170 502 348 432 658 432 H1050 C1272 432 1434 562 1472 736 L1486 812 H58 L92 704 C98 676 104 654 112 636 Z" fill="url(#paint_vf_8)"/>
    <path d="M350 420 C464 276 894 274 1114 462 C1172 512 1220 560 1288 644 H276 C294 544 318 472 350 420 Z" fill="#ffffff" opacity="0.24"/>
    <path d="M430 448 C548 340 842 344 1038 494 L1116 616 H320 C344 538 378 482 430 448 Z" fill="url(#glass_vf_8)" opacity="0.9"/>
    <path d="M430 448 C548 340 842 344 1038 494 L1116 616 H320 C344 538 378 482 430 448 Z" fill="#ffffff" opacity="0.14"/>
    <path d="M154 690 C432 612 914 612 1378 698" fill="none" stroke="#ffffff" stroke-width="18" stroke-linecap="round" opacity="0.5"/>
    <path d="M154 690 C432 612 914 612 1378 698" fill="none" stroke="#042f5f" stroke-width="7" stroke-linecap="round" opacity="0.92"/>
    <path d="M246 672 H1378" stroke="#0b1726" stroke-width="28" stroke-linecap="round" opacity="0.18"/>
    <path d="M1030 612 C1138 626 1228 662 1304 724" fill="none" stroke="#e8fbff" stroke-width="16" stroke-linecap="round"/>
    <path d="M154 648 H256" fill="none" stroke="#e8fbff" stroke-width="14" stroke-linecap="round"/>
    <path d="M468 452 L432 612" stroke="#ffffff" stroke-width="9" opacity="0.62"/>
    <path d="M692 388 L688 614" stroke="#ffffff" stroke-width="9" opacity="0.62"/>
    <g>
    <circle cx="406" cy="802" r="106" fill="#07111e"/>
    <circle cx="406" cy="802" r="76.32" fill="url(#rim_vf_8)"/>
    <circle cx="406" cy="802" r="53" fill="#0b1726"/>
    <line x1="406" y1="802" x2="456.9" y2="802.0" stroke="#dfeaf0" stroke-width="7.9" stroke-linecap="round"/><line x1="406" y1="802" x2="447.2" y2="831.9" stroke="#dfeaf0" stroke-width="7.9" stroke-linecap="round"/><line x1="406" y1="802" x2="421.7" y2="850.4" stroke="#dfeaf0" stroke-width="7.9" stroke-linecap="round"/><line x1="406" y1="802" x2="390.3" y2="850.4" stroke="#dfeaf0" stroke-width="7.9" stroke-linecap="round"/><line x1="406" y1="802" x2="364.8" y2="831.9" stroke="#dfeaf0" stroke-width="7.9" stroke-linecap="round"/><line x1="406" y1="802" x2="355.1" y2="802.0" stroke="#dfeaf0" stroke-width="7.9" stroke-linecap="round"/><line x1="406" y1="802" x2="364.8" y2="772.1" stroke="#dfeaf0" stroke-width="7.9" stroke-linecap="round"/><line x1="406" y1="802" x2="390.3" y2="753.6" stroke="#dfeaf0" stroke-width="7.9" stroke-linecap="round"/><line x1="406" y1="802" x2="421.7" y2="753.6" stroke="#dfeaf0" stroke-width="7.9" stroke-linecap="round"/><line x1="406" y1="802" x2="447.2" y2="772.1" stroke="#dfeaf0" stroke-width="7.9" stroke-linecap="round"/>
    <circle cx="406" cy="802" r="21.200000000000003" fill="#042f5f"/>
  </g>
    <g>
    <circle cx="1196" cy="802" r="106" fill="#07111e"/>
    <circle cx="1196" cy="802" r="76.32" fill="url(#rim_vf_8)"/>
    <circle cx="1196" cy="802" r="53" fill="#0b1726"/>
    <line x1="1196" y1="802" x2="1246.9" y2="802.0" stroke="#dfeaf0" stroke-width="7.9" stroke-linecap="round"/><line x1="1196" y1="802" x2="1237.2" y2="831.9" stroke="#dfeaf0" stroke-width="7.9" stroke-linecap="round"/><line x1="1196" y1="802" x2="1211.7" y2="850.4" stroke="#dfeaf0" stroke-width="7.9" stroke-linecap="round"/><line x1="1196" y1="802" x2="1180.3" y2="850.4" stroke="#dfeaf0" stroke-width="7.9" stroke-linecap="round"/><line x1="1196" y1="802" x2="1154.8" y2="831.9" stroke="#dfeaf0" stroke-width="7.9" stroke-linecap="round"/><line x1="1196" y1="802" x2="1145.1" y2="802.0" stroke="#dfeaf0" stroke-width="7.9" stroke-linecap="round"/><line x1="1196" y1="802" x2="1154.8" y2="772.1" stroke="#dfeaf0" stroke-width="7.9" stroke-linecap="round"/><line x1="1196" y1="802" x2="1180.3" y2="753.6" stroke="#dfeaf0" stroke-width="7.9" stroke-linecap="round"/><line x1="1196" y1="802" x2="1211.7" y2="753.6" stroke="#dfeaf0" stroke-width="7.9" stroke-linecap="round"/><line x1="1196" y1="802" x2="1237.2" y2="772.1" stroke="#dfeaf0" stroke-width="7.9" stroke-linecap="round"/>
    <circle cx="1196" cy="802" r="21.200000000000003" fill="#042f5f"/>
  </g>
  </g>
  <path d="M410 874 C650 920 984 920 1208 874" fill="none" stroke="#ffffff" stroke-width="2" opacity="0.7"/>
</svg>
